<svg xmlns="http://www.w3.org/2000/svg" version="1.1" xmlns:xlink="http://www.w3.org/1999/xlink" xmlns:svgjs="http://svgjs.dev/svgjs" width="1500" height="935" viewBox="0 0 1500 935"><g transform="matrix(1,0,0,1,-0.9090909090909918,186.97256962335916)"><svg viewBox="0 0 396 247" data-background-color="#333333" preserveAspectRatio="xMidYMid meet" height="935" width="1500" xmlns="http://www.w3.org/2000/svg" xmlns:xlink="http://www.w3.org/1999/xlink"><g id="tight-bounds" transform="matrix(1,0,0,1,0.2400000000000091,-0.09999999999999432)"><svg viewBox="0 0 395.52 247.2" height="247.2" width="395.52"><g><svg></svg></g><g><svg viewBox="0 0 395.52 247.2" height="247.2" width="395.52"><g transform="matrix(1,0,0,1,75.54432000000001,50.042712562828996)"><svg viewBox="0 0 244.43135999999996 147.114574874342" height="147.114574874342" width="244.43135999999996"><g><svg viewBox="0 0 244.43135999999996 147.114574874342" height="147.114574874342" width="244.43135999999996"><g><svg viewBox="0 0 244.43135999999996 147.114574874342" height="147.114574874342" width="244.43135999999996"><g transform="matrix(1,0,0,1,0,90.92270921637714)"><svg viewBox="0 0 244.43135999999996 56.19186565796484" height="56.19186565796484" width="244.43135999999996"><g id="textblocktransform"><svg viewBox="0 0 244.43135999999996 56.19186565796484" height="56.19186565796484" width="244.43135999999996" id="textblock"><g><svg viewBox="0 0 244.43135999999996 56.19186565796484" height="56.19186565796484" width="244.43135999999996"><g transform="matrix(1,0,0,1,0,0)"><svg width="244.43135999999996" viewBox="1.35 -42.3 187.69 43.15" height="56.19186565796484" data-palette-color="#7fc37e"><path d="M30.3 0L26.2-11.05 10.4-11.05 6.35 0 1.35 0 15.6-38.35 21-38.35 35.3 0 30.3 0ZM12.05-15.4L24.55-15.4 18.3-32.3 12.05-15.4ZM54.15-28.25L55.3-28.25 55.3-23.85 54.15-23.85Q49.85-23.85 45.8-20.4L45.8-20.4 45.8 0 41.1 0 41.1-27.65 45.8-27.65 45.8-24.55Q49.9-28.25 54.15-28.25L54.15-28.25ZM73.35-22.95L66.95-22.95 66.95-7.15Q66.95-5.15 67.57-4.42 68.2-3.7 69.9-3.7L69.9-3.7Q71.4-3.7 73.1-4.1L73.1-4.1 73.1 0.15Q70.85 0.65 69.1 0.65L69.1 0.65Q65.3 0.65 63.77-0.9 62.25-2.45 62.25-6.1L62.25-6.1 62.25-22.95 58.65-22.95 58.65-27.3 62.25-27.3 62.25-36.8 66.95-36.8 66.95-27.3 73.35-27.3 73.35-22.95ZM123.44-37.9L128.34-37.9 117.44 0.45 112.04 0.45 102.89-30.7 93.79 0.45 88.39 0.45 77.44-37.9 82.34-37.9 91.14-6.1 100.14-37.9 105.64-37.9 114.69-6.05 123.44-37.9ZM138.04-13.45Q138.14-8.85 140.34-6.1 142.54-3.35 147.34-3.35L147.34-3.35Q150.99-3.35 155.34-5.4L155.34-5.4 156.79-1.5Q152.24 0.85 146.94 0.85L146.94 0.85Q142.54 0.85 139.44-1 136.34-2.85 134.74-6.15 133.14-9.45 133.14-13.85L133.14-13.85Q133.14-18.5 134.82-21.78 136.49-25.05 139.34-26.75 142.19-28.45 145.74-28.45L145.74-28.45Q151.19-28.45 154.29-25.05 157.39-21.65 157.39-15.3L157.39-15.3 157.39-13.45 138.04-13.45ZM145.74-24.25Q139.54-24.25 138.34-17.4L138.34-17.4 152.44-17.4Q152.19-20.9 150.54-22.58 148.89-24.25 145.74-24.25L145.74-24.25ZM176.79-28.45Q182.39-28.45 185.71-24.7 189.04-20.95 189.04-13.8L189.04-13.8Q189.04-6.65 185.71-2.9 182.39 0.85 176.79 0.85L176.79 0.85Q172.74 0.85 168.79-2.5L168.79-2.5 168.79 0 164.09 0 164.09-42.3 168.79-42.3 168.79-25.05Q172.79-28.45 176.79-28.45L176.79-28.45ZM176.14-3.5Q180.09-3.5 182.14-6.13 184.19-8.75 184.19-13.8L184.19-13.8Q184.19-18.85 182.14-21.45 180.09-24.05 176.14-24.05L176.14-24.05Q172.39-24.05 168.79-20.95L168.79-20.95 168.79-6.6Q172.49-3.5 176.14-3.5L176.14-3.5Z" opacity="1" transform="matrix(1,0,0,1,0,0)" fill="#7fc37e" class="wordmark-text-0" data-fill-palette-color="primary" id="text-0"></path></svg></g></svg></g></svg></g></svg></g><g transform="matrix(1,0,0,1,73.28243755898328,0)"><svg viewBox="0 0 97.86648488203339 77.65715833930743" height="77.65715833930743" width="97.86648488203339"><g><svg xmlns="http://www.w3.org/2000/svg" xmlns:xlink="http://www.w3.org/1999/xlink" version="1.1" x="0" y="0" viewBox="2.3 12.100000000000001 95.40000000000002 75.70000000000002" enable-background="new 0 0 100 100" xml:space="preserve" height="77.65715833930743" width="97.86648488203339" class="icon-icon-0" data-fill-palette-color="accent" id="icon-0"><path d="M84.7 25.7c-0.5-2.2-1.3-4.4-2.4-6.5 3.2 1.2 5.8 3.5 7.4 6.5H84.7zM72.2 19.2c-3.2 1.2-5.9 3.5-7.6 6.5h5C70.2 23.4 71.1 21.2 72.2 19.2zM76.1 18.3c-1.5 2.3-2.7 4.8-3.4 7.4h9c-0.7-2.6-1.8-5.1-3.3-7.4-0.4 0-0.8-0.1-1.3-0.1C76.8 18.3 76.5 18.3 76.1 18.3zM15.4 66.2V72h61.8v-5-2.9V57c2.6 0 5.2-0.4 7.7-1.2v8.4 2.9 4.5c0 1 0.3 2 1 2.7l3.9 4.8c0.3 0.4 0.5 0.8 0.5 1.3v2.2c0 2.9-2.3 5.2-5.2 5.2H7.5c-2.9 0-5.2-2.3-5.2-5.2v-2.2c0-0.5 0.2-0.9 0.5-1.3l4-4.9c0.6-0.8 1-1.7 1-2.7v-5.7-1.7V32.6c0-4.2 3.4-7.7 7.7-7.7H54c-0.8 2.5-1.2 5.1-1.2 7.7H15.4c0 0 0 0 0 0v31.6V66.2zM38 80.3c0 1.5 1.2 2.7 2.7 2.7H52c1.5 0 2.7-1.2 2.7-2.7v-0.6H38V80.3zM68.8 32.8c0-1.4 0.1-2.8 0.3-4.2h-5.7c-0.4 1.3-0.6 2.6-0.6 4 0 1.4 0.2 2.7 0.6 3.9h5.6C68.9 35.3 68.8 34 68.8 32.8zM64.6 39.5c1.6 2.9 4.2 5.2 7.3 6.5-1.1-2.1-1.8-4.2-2.4-6.5H64.6zM71.7 32.8c0 1.3 0.1 2.5 0.3 3.8h10.3c0.2-1.4 0.3-2.7 0.3-4.1 0-1.3-0.1-2.5-0.3-3.8H72.1C71.8 30 71.7 31.4 71.7 32.8zM91.7 18.1c8 8 8 21 0 28.9-6.7 6.7-17 7.8-24.8 3.2l0 0c-3.1 2.3-6.4 2.7-8.7 2.4-0.8-0.1-0.9-1.2-0.2-1.5 2.1-1 3.4-3.1 4.2-4.8l-0.2-0.2c-7.1-8-6.8-20.3 0.9-28C70.7 10.1 83.7 10.1 91.7 18.1zM89.4 20.4c-3.3-3.3-7.6-5.1-12.2-5.1-4.6 0-8.9 1.8-12.2 5.1C61.8 23.7 60 28 60 32.6c0 4.6 1.8 8.9 5.1 12.2 3.3 3.3 7.6 5.1 12.2 5.1 4.6 0 8.9-1.8 12.2-5.1 3.3-3.3 5.1-7.6 5.1-12.2C94.5 28 92.7 23.7 89.4 20.4zM75.9 46.9c0.4 0 0.9 0.1 1.3 0.1 0.3 0 0.7 0 1 0 1.5-2.3 2.7-4.8 3.4-7.4h-9.1C73.3 42.1 74.4 44.6 75.9 46.9zM85.5 32.4c0 1.4-0.1 2.8-0.3 4.1H91c0.4-1.3 0.6-2.6 0.6-3.9 0-1.4-0.2-2.7-0.6-4h-5.7C85.4 29.9 85.5 31.1 85.5 32.4zM82.1 46.1c3.3-1.2 6-3.6 7.7-6.6h-5.1C84.1 41.8 83.2 44 82.1 46.1z" fill="#fefee2" data-fill-palette-color="accent"></path></svg></g></svg></g><g></g></svg></g></svg></g></svg></g><g><path d="M111.746 36.777A122.216 122.216 0 0 1 283.774 36.777L278.707 36.777A117.148 117.148 0 0 0 116.813 36.777L111.746 36.777M111.746 210.423A122.216 122.216 0 0 0 283.774 210.423L278.707 210.423A117.148 117.148 0 0 1 116.813 210.423L111.746 210.423" fill="#7fc37e" stroke="transparent" data-fill-palette-color="tertiary"></path></g></svg></g><defs></defs></svg><rect width="395.52" height="247.2" fill="none" stroke="none" visibility="hidden"></rect></g></svg></g></svg>